PathFileType	4	(X/Y/Z)	/Users/itak/Documents/Research/Walk-IL/dataset/trc/00475_00167.trc
DataRate	CameraRate	NumFrames	NumMarkers	Units	OrigDataRate	OrigDataStartFrame	OrigNumFrames
100.000000	100.000000	4	53	mm	100.000000	135	543
Frame#	Time	RPSI			LPSI			L3			STRN			T10			C7			CLAV			RBAK			LBAK			LSHO			LUPA			LAEL			LAOL			LWPS			LFRA			LIFD			LHPS			LHTS			RSHO			RUPA			RAEL			RAOL			RWTS			RWPS			RFRA			RIFD			RHTS			RHPS			RBHD			LFHD			RFHD			LBHD			LHIP			RHIP			RASI			LASI			LKNE			LTHI			LANK			LTIP			LTOE			LMT1			LMT5			LHEE			RKNE			RTHI			RANK			RTIP			RTOE			RMT1			RMT5			RHEE			LWTS			
		X1	Y1	Z1	X2	Y2	Z2	X3	Y3	Z3	X4	Y4	Z4	X5	Y5	Z5	X6	Y6	Z6	X7	Y7	Z7	X8	Y8	Z8	X9	Y9	Z9	X10	Y10	Z10	X11	Y11	Z11	X12	Y12	Z12	X13	Y13	Z13	X14	Y14	Z14	X15	Y15	Z15	X16	Y16	Z16	X17	Y17	Z17	X18	Y18	Z18	X19	Y19	Z19	X20	Y20	Z20	X21	Y21	Z21	X22	Y22	Z22	X23	Y23	Z23	X24	Y24	Z24	X25	Y25	Z25	X26	Y26	Z26	X27	Y27	Z27	X28	Y28	Z28	X29	Y29	Z29	X30	Y30	Z30	X31	Y31	Z31	X32	Y32	Z32	X33	Y33	Z33	X34	Y34	Z34	X35	Y35	Z35	X36	Y36	Z36	X37	Y37	Z37	X38	Y38	Z38	X39	Y39	Z39	X40	Y40	Z40	X41	Y41	Z41	X42	Y42	Z42	X43	Y43	Z43	X44	Y44	Z44	X45	Y45	Z45	X46	Y46	Z46	X47	Y47	Z47	X48	Y48	Z48	X49	Y49	Z49	X50	Y50	Z50	X51	Y51	Z51	X52	Y52	Z52	X53	Y53	Z53	

136	1.35	-1227.983154296875	961.5108032226562	-159.3800659179688	-1213.458984375	968.3292236328125	-302.0365600585938	-1198.905151367188	1054.327270507812	-212.8338928222656	-922.6170043945312	1237.3974609375	-225.2544860839844	-1210.086059570312	1179.227416992188	-216.9376220703125	-1134.157348632812	1445.043701171875	-211.6366882324219	-954.17626953125	1351.787719726562	-230.7140960693359	-1198.41455078125	1328.333251953125	-112.9091949462891	-1171.713623046875	1396.69873046875	-309.8847351074219	-1070.455810546875	1411.338134765625	-393.5345764160156	-1087.130493164062	1289.365356445312	-488.8994750976562	-1068.779663085938	1069.26513671875	-510.4224243164062	-1145.211791992188	1061.605834960938	-441.0363159179688	-1046.976196289062	856.0187377929688	-516.7628784179688	-1051.220336914062	980.3359985351562	-516.9909057617188	-997.0578002929688	709.35302734375	-495.8139953613281	-1041.162841796875	784.1957397460938	-528.72412109375	-982.5474853515625	783.2534790039062	-485.12548828125	-1062.504150390625	1413.067016601562	-54.18892669677734	-1079.227905273438	1355.296142578125	23.61565971374512	-1081.469604492188	1072.00634765625	94.19078063964844	-1131.328369140625	1051.35205078125	53.39593505859375	-970.1187133789062	865.4895629882812	59.18038940429688	-1037.802001953125	855.132568359375	116.8353576660156	-1075.282470703125	1013.954711914062	106.209587097168	-978.4227294921875	708.0365600585938	73.53604125976562	-960.4464111328125	766.0037841796875	72.84603881835938	-1027.328979492188	768.3318481445312	115.703125	-1021.238220214844	1642.736938476562	-134.1675109863281	-900.4521484375	1635.577880859375	-301.9574584960938	-888.0391235351562	1642.468505859375	-172.3060455322266	-1053.55224609375	1639.928833007812	-308.7825927734375	-1068.056274414062	860.9113159179688	-413.7821655273438	-1127.428344726562	844.3052368164062	-17.4138240814209	-1017.743774414062	883.125244140625	-71.14077758789062	-981.6300048828125	891.1361694335938	-324.1262817382812	-1065.346313476562	437.8089294433594	-347.354248046875	-1038.293579101562	588.5897827148438	-377.543212890625	-1201.669921875	39.88789367675781	-346.1754760742188	-1091.5771484375	284.3250427246094	-353.5425415039062	-989.2578125	47.06573486328125	-229.1015625	-1068.62109375	52.29446792602539	-217.0876312255859	-1049.748657226562	49.36968231201172	-327.60400390625	-1258.212524414062	45.40987777709961	-292.1155395507812	-1076.513671875	461.2038269042969	-8.637800216674805	-1077.344970703125	716.6654052734375	2.396058797836304	-1267.918334960938	64.98518371582031	13.43715381622314	-1128.056396484375	329.8528747558594	10.77901840209961	-1055.328247070312	48.0916862487793	-11.1707763671875	-1110.525634765625	53.58012008666992	-54.86444473266602	-1141.904296875	47.88836288452148	48.88633346557617	-1327.45458984375	72.78234100341797	-38.20974731445312	-994.9928588867188	865.982666015625	-463.2890625	
137	1.36	-1225.8935546875	959.5659790039062	-160.755126953125	-1211.321044921875	967.2942504882812	-303.46240234375	-1196.807739257812	1053.916259765625	-214.7519378662109	-919.4105224609375	1236.879150390625	-226.9615783691406	-1207.17919921875	1178.85791015625	-218.6774597167969	-1130.838134765625	1444.617553710938	-213.5038604736328	-950.8880004882812	1351.306030273438	-232.4622802734375	-1195.27587890625	1327.990112304688	-114.7409286499023	-1168.354858398438	1396.169799804688	-311.704833984375	-1067.112915039062	1410.695922851562	-395.4360046386719	-1083.950073242188	1288.662231445312	-490.6707153320312	-1066.007568359375	1068.48681640625	-511.8176879882812	-1142.500244140625	1061.126586914062	-442.3624877929688	-1045.212280273438	855.135498046875	-517.8419799804688	-1048.802734375	979.4957275390625	-518.236083984375	-995.7686157226562	708.3432006835938	-496.5079956054688	-1039.739624023438	783.2054443359375	-529.5838012695312	-981.15380859375	782.0906372070312	-486.0432739257812	-1059.29248046875	1412.667602539062	-55.9315299987793	-1076.099365234375	1354.876220703125	21.8055534362793	-1078.666625976562	1071.8310546875	92.97949981689453	-1128.470336914062	1051.010864257812	52.11825942993164	-966.8690795898438	865.662841796875	58.34574890136719	-1034.603515625	855.1077880859375	116.0241622924805	-1072.40283203125	1013.777709960938	105.0669021606445	-974.37158203125	708.263671875	73.30297088623047	-956.7159423828125	766.298095703125	72.41496276855469	-1023.609130859375	768.3580322265625	115.2425231933594	-1018.216369628906	1642.333374023438	-136.2116088867188	-897.30224609375	1635.215087890625	-303.9203186035156	-884.9617309570312	1642.225708007812	-174.2965240478516	-1050.376098632812	1639.254150390625	-310.8512573242188	-1065.770874023438	860.2201538085938	-415.1668701171875	-1123.50830078125	843.46240234375	-18.33402442932129	-1014.885803222656	883.2542114257812	-72.95185852050781	-979.19091796875	890.7058715820312	-325.8576354980469	-1063.980346679688	437.2393493652344	-348.1431884765625	-1036.312377929688	588.0462646484375	-378.4383850097656	-1201.642578125	39.78784942626953	-346.3149719238281	-1090.747802734375	283.8252868652344	-354.0735778808594	-989.4044799804688	46.97679901123047	-228.9880676269531	-1068.5869140625	52.33316421508789	-217.044189453125	-1049.703979492188	49.28071212768555	-327.6334838867188	-1258.291748046875	45.39110946655273	-292.2759704589844	-1061.7353515625	462.8544616699219	-7.954870700836182	-1069.4853515625	717.190673828125	1.042311072349548	-1265.449951171875	72.06929016113281	13.15468788146973	-1116.970703125	332.7355651855469	11.36434936523438	-1055.090942382812	47.65887069702148	-11.07886028289795	-1109.154174804688	53.76530456542969	-54.78909683227539	-1141.128662109375	48.78190994262695	48.41181182861328	-1324.153198242188	83.2156982421875	-38.72937774658203	-993.1019287109375	864.9329833984375	-464.3982849121094	
138	1.37	-1223.724853515625	957.7691650390625	-162.0896911621094	-1209.152465820312	966.2869262695312	-304.8187561035156	-1194.758666992188	1053.6669921875	-216.6697692871094	-916.1375122070312	1236.406127929688	-228.5408020019531	-1204.218383789062	1178.63330078125	-220.426513671875	-1127.37109375	1444.28759765625	-215.3631744384766	-947.4877319335938	1350.876831054688	-234.095703125	-1192.07275390625	1327.789428710938	-116.5832138061523	-1164.797607421875	1395.76708984375	-313.5687561035156	-1063.495239257812	1410.142700195312	-397.2869262695312	-1080.431030273438	1288.054321289062	-492.3974609375	-1062.946044921875	1067.817016601562	-513.1397094726562	-1139.565551757812	1060.77880859375	-443.6794738769531	-1043.272827148438	854.3673706054688	-518.889892578125	-1046.15234375	978.7651977539062	-519.4207153320312	-994.4608764648438	707.388427734375	-497.1935729980469	-1038.198974609375	782.3255004882812	-530.4353637695312	-979.660888671875	780.9678955078125	-486.9244995117188	-1056.026733398438	1412.377319335938	-57.61820983886719	-1072.962890625	1354.584838867188	20.052978515625	-1075.916137695312	1071.766357421875	91.78865814208984	-1125.639282226562	1050.78173828125	50.82609176635742	-963.6868896484375	865.9541625976562	57.56692504882812	-1031.454345703125	855.196533203125	115.2423782348633	-1069.58154296875	1013.713012695312	103.9460144042969	-970.2445068359375	708.6366577148438	73.18672180175781	-952.9505004882812	766.755859375	72.09264373779297	-1019.888793945312	768.5122680664062	114.8517990112305	-1015.045043945312	1641.990478515625	-138.1867980957031	-894.0035400390625	1634.9072265625	-305.8017272949219	-881.7570190429688	1642.054443359375	-176.2106018066406	-1047.050170898438	1638.631958007812	-312.852783203125	-1063.56201171875	859.5354614257812	-416.4746704101562	-1119.440673828125	842.8886108398438	-19.18771743774414	-1011.956237792969	883.6395263671875	-74.72734069824219	-976.6914672851562	890.29833984375	-327.5514526367188	-1062.735595703125	436.7017517089844	-348.9413757324219	-1034.468872070312	587.5272827148438	-379.334716796875	-1201.6318359375	39.70835876464844	-346.421875	-1090.0341796875	283.3692626953125	-354.6209716796875	-989.50146484375	46.8997802734375	-228.9032287597656	-1068.5322265625	52.36505508422852	-217.0336151123047	-1049.639892578125	49.18501281738281	-327.7151794433594	-1258.359497070312	45.37889862060547	-292.3894958496094	-1046.22802734375	465.0561828613281	-7.186346054077148	-1061.272338867188	718.1746215820312	-0.2442064136266708	-1262.186157226562	80.17078399658203	12.66736507415771	-1104.9716796875	336.1534423828125	11.93323135375977	-1054.591796875	47.27289581298828	-11.09092617034912	-1107.409545898438	54.1488151550293	-54.92777252197266	-1139.908569335938	50.24860382080078	47.75188827514648	-1319.85693359375	94.72631072998047	-39.44041061401367	-991.0679321289062	863.9506225585938	-465.4546203613281	
139	1.38	-1221.428100585938	956.1392211914062	-163.3430023193359	-1206.921508789062	965.3053588867188	-306.0676574707031	-1192.72509765625	1053.566650390625	-218.5484466552734	-912.798828125	1235.9755859375	-229.9886169433594	-1201.220581054688	1178.546264648438	-222.1712799072266	-1123.757568359375	1444.046997070312	-217.1958923339844	-943.9772338867188	1350.5029296875	-235.6076812744141	-1188.7919921875	1327.724487304688	-118.4116668701172	-1161.042724609375	1395.48876953125	-315.4617004394531	-1059.598754882812	1409.68701171875	-399.0670471191406	-1076.560791015625	1287.557983398438	-494.0732116699219	-1059.583129882812	1067.26611328125	-514.3778686523438	-1136.398315429688	1060.57373046875	-444.9916076660156	-1041.13818359375	853.718505859375	-519.9041137695312	-1043.25634765625	978.1542358398438	-520.5394287109375	-993.1578979492188	706.4804077148438	-497.8724060058594	-1036.531005859375	781.5634155273438	-531.2745971679688	-978.0557250976562	779.8973388671875	-487.7745971679688	-1052.693603515625	1412.20068359375	-59.24702453613281	-1069.802001953125	1354.435302734375	18.36712265014648	-1073.2236328125	1071.821655273438	90.62311553955078	-1122.843017578125	1050.682373046875	49.52785110473633	-960.583740234375	866.3662719726562	56.84270858764648	-1028.361450195312	855.401611328125	114.4864349365234	-1066.83056640625	1013.772827148438	102.8552627563477	-966.0574340820312	709.1572265625	73.16422271728516	-949.1630859375	767.3809204101562	71.86458587646484	-1016.180114746094	768.795654296875	114.5140151977539	-1011.712585449219	1641.690673828125	-140.0827484130859	-890.5568237304688	1634.646484375	-307.5997924804688	-878.4187622070312	1641.94580078125	-178.0394897460938	-1043.584106445312	1638.05029296875	-314.7760925292969	-1061.401123046875	858.8675537109375	-417.6898193359375	-1115.18310546875	842.6170043945312	-19.9530143737793	-1008.906982421875	884.2921142578125	-76.45656585693359	-974.1163330078125	889.9222412109375	-329.210693359375	-1061.614990234375	436.2085266113281	-349.7514038085938	-1032.778930664062	587.0391235351562	-380.2399291992188	-1201.644775390625	39.64556121826172	-346.4964904785156	-1089.445190429688	282.9560852050781	-355.1881713867188	-989.5360717773438	46.8337287902832	-228.8459777832031	-1068.466186523438	52.38846969604492	-217.0580444335938	-1049.56201171875	49.0796012878418	-327.8443603515625	-1258.418334960938	45.37574005126953	-292.4533996582031	-1030.164794921875	467.7794494628906	-6.399264812469482	-1052.764892578125	719.6224365234375	-1.420713901519775	-1257.979736328125	89.12511444091797	11.96187019348145	-1092.140258789062	340.0129089355469	12.4337329864502	-1053.600463867188	46.99529647827148	-11.25836753845215	-1105.150512695312	54.85747146606445	-55.32655334472656	-1138.0498046875	52.42349243164062	46.90024948120117	-1314.481811523438	107.0128784179688	-40.31995391845703	-988.8775634765625	863.0452270507812	-466.4570617675781	
